<?xml version="1.0" encoding="UTF-8" standalone="no"?>
<!DOCTYPE svg PUBLIC "-//W3C//DTD SVG 1.1//EN"
 "http://www.w3.org/Graphics/SVG/1.1/DTD/svg11.dtd">
<!-- Generated by graphviz version 2.40.1 (20161225.0304)
 -->
<!-- Title: BoschSubgraph Pages: 1 -->
<svg width="215pt" height="267pt"
 viewBox="3.60 3.60 211.60 263.60" xmlns="http://www.w3.org/2000/svg" xmlns:xlink="http://www.w3.org/1999/xlink">
<g id="graph0" class="graph" transform="scale(1 1) rotate(0) translate(7.6 259.6)">
<title>BoschSubgraph</title>
<polygon fill="#ffffff" stroke="transparent" points="-4,4 -4,-256 204,-256 204,4 -4,4"/>
<!-- 0 -->
<g id="node1" class="node">
<title>0</title>
<ellipse fill="#fa8072" stroke="#fa8072" cx="89" cy="-225" rx="27" ry="27"/>
<text text-anchor="middle" x="89" y="-220" font-family="Times,serif" font-weight="bold" font-size="20.00" fill="#000000">0</text>
</g>
<!-- 1 -->
<g id="node2" class="node">
<title>1</title>
<ellipse fill="#fa8072" stroke="#fa8072" cx="90" cy="-126" rx="27" ry="27"/>
<text text-anchor="middle" x="90" y="-121" font-family="Times,serif" font-weight="bold" font-size="20.00" fill="#000000">1</text>
</g>
<!-- 0&#45;&gt;1 -->
<g id="edge1" class="edge">
<title>0&#45;&gt;1</title>
<path fill="none" stroke="#000000" stroke-width="1.5" d="M79.4923,-199.6032C77.1602,-190.6224 75.6675,-180.4138 77,-171 77.7918,-165.4066 79.1111,-159.5352 80.6134,-153.9485"/>
<polygon fill="#000000" stroke="#000000" stroke-width="1.5" points="81.3201,-154.0182 81.1745,-151.9042 79.97,-153.6476 81.3201,-154.0182"/>
<text text-anchor="middle" x="82" y="-173.6" font-family="Times,serif" font-size="8.00" fill="#000000">1.0</text>
</g>
<!-- 2 -->
<g id="node3" class="node">
<title>2</title>
<ellipse fill="#fa8072" stroke="#fa8072" cx="27" cy="-27" rx="27" ry="27"/>
<text text-anchor="middle" x="27" y="-22" font-family="Times,serif" font-weight="bold" font-size="20.00" fill="#000000">2</text>
</g>
<!-- 0&#45;&gt;2 -->
<g id="edge5" class="edge">
<title>0&#45;&gt;2</title>
<path fill="none" stroke="#000000" stroke-width="1.5" d="M65.8758,-210.818C47.6908,-198.1868 23.7006,-177.8775 13,-153 -.7034,-121.1415 7.7663,-80.7661 16.3051,-54.4279"/>
<polygon fill="#000000" stroke="#000000" stroke-width="1.5" points="17.0646,-54.359 17.0249,-52.2404 15.7348,-53.9214 17.0646,-54.359"/>
<text text-anchor="middle" x="20" y="-124.1" font-family="Times,serif" font-size="8.00" fill="#000000">0.24</text>
</g>
<!-- 3 -->
<g id="node4" class="node">
<title>3</title>
<ellipse fill="#fa8072" stroke="#fa8072" cx="150" cy="-27" rx="27" ry="27"/>
<text text-anchor="middle" x="150" y="-22" font-family="Times,serif" font-weight="bold" font-size="20.00" fill="#000000">3</text>
</g>
<!-- 0&#45;&gt;3 -->
<g id="edge8" class="edge">
<title>0&#45;&gt;3</title>
<path fill="none" stroke="#000000" stroke-width="1.5" d="M102.3615,-201.3034C109.6396,-187.5553 118.298,-169.7049 124,-153 134.5591,-122.0654 132.4044,-113.0147 139,-81 140.6907,-72.7933 142.512,-63.8818 144.1767,-55.7082"/>
<polygon fill="#000000" stroke="#000000" stroke-width="1.5" points="144.8832,-55.7465 144.5963,-53.647 143.5113,-55.4671 144.8832,-55.7465"/>
<text text-anchor="middle" x="142" y="-124.1" font-family="Times,serif" font-size="8.00" fill="#000000">0.24</text>
</g>
<!-- 1&#45;&gt;0 -->
<g id="edge4" class="edge">
<title>1&#45;&gt;0</title>
<path fill="none" stroke="#000000" stroke-width="1.5" d="M89.7271,-153.0195C89.5937,-166.2201 89.433,-182.129 89.2967,-195.6299"/>
<polygon fill="#000000" stroke="#000000" stroke-width="1.5" points="88.5936,-195.9408 89.2733,-197.9478 89.9935,-195.955 88.5936,-195.9408"/>
<text text-anchor="middle" x="96" y="-173.6" font-family="Times,serif" font-size="8.00" fill="#000000">0.32</text>
</g>
<!-- 1&#45;&gt;2 -->
<g id="edge2" class="edge">
<title>1&#45;&gt;2</title>
<path fill="none" stroke="#000000" stroke-width="1.5" d="M67.8117,-109.6922C58.6403,-101.9261 48.6247,-91.9447 42,-81 37.4017,-73.4031 34.1756,-64.3597 31.9278,-55.8667"/>
<polygon fill="#000000" stroke="#000000" stroke-width="1.5" points="32.5523,-55.4837 31.3771,-53.7205 31.1962,-55.8317 32.5523,-55.4837"/>
<text text-anchor="middle" x="49" y="-74.6" font-family="Times,serif" font-size="8.00" fill="#000000">0.59</text>
</g>
<!-- 1&#45;&gt;3 -->
<g id="edge6" class="edge">
<title>1&#45;&gt;3</title>
<path fill="none" stroke="#000000" stroke-width="1.5" d="M96.3655,-99.4701C99.1762,-90.3906 103.0008,-80.4096 108,-72 113.4267,-62.8714 120.9691,-54.049 128.1669,-46.6707"/>
<polygon fill="#000000" stroke="#000000" stroke-width="1.5" points="128.6963,-47.1308 129.6011,-45.2146 127.6989,-46.1483 128.6963,-47.1308"/>
<text text-anchor="middle" x="115" y="-74.6" font-family="Times,serif" font-size="8.00" fill="#000000">0.58</text>
</g>
<!-- 2&#45;&gt;0 -->
<g id="edge3" class="edge">
<title>2&#45;&gt;0</title>
<path fill="none" stroke="#000000" stroke-width="1.5" d="M26.6972,-54.3712C27.2257,-80.4666 30.1922,-120.4918 42,-153 48.5133,-170.9318 60.2374,-188.9043 70.3461,-202.4075"/>
<polygon fill="#000000" stroke="#000000" stroke-width="1.5" points="69.8075,-202.856 71.5704,-204.0318 70.9255,-202.0133 69.8075,-202.856"/>
<text text-anchor="middle" x="49" y="-124.1" font-family="Times,serif" font-size="8.00" fill="#000000">0.11</text>
</g>
<!-- 2&#45;&gt;1 -->
<g id="edge10" class="edge">
<title>2&#45;&gt;1</title>
<path fill="none" stroke="#000000" stroke-width="1.5" d="M41.5326,-49.8369C51.2961,-65.1796 64.1595,-85.3934 74.1806,-101.1409"/>
<polygon fill="#000000" stroke="#000000" stroke-width="1.5" points="73.7238,-101.7271 75.3882,-103.0386 74.905,-100.9754 73.7238,-101.7271"/>
<text text-anchor="middle" x="67" y="-74.6" font-family="Times,serif" font-size="8.00" fill="#000000">0.11</text>
</g>
<!-- 3&#45;&gt;0 -->
<g id="edge7" class="edge">
<title>3&#45;&gt;0</title>
<path fill="none" stroke="#000000" stroke-width="1.5" d="M163.5756,-50.7848C167.0097,-57.4927 170.444,-64.9006 173,-72 189.2598,-117.1622 202.0041,-141.754 173,-180 159.2629,-198.1143 136.0707,-209.7477 117.5318,-216.6386"/>
<polygon fill="#000000" stroke="#000000" stroke-width="1.5" points="116.9335,-216.1118 115.295,-217.4555 117.4138,-217.4268 116.9335,-216.1118"/>
<text text-anchor="middle" x="195" y="-124.1" font-family="Times,serif" font-size="8.00" fill="#000000">0.1</text>
</g>
<!-- 3&#45;&gt;1 -->
<g id="edge9" class="edge">
<title>3&#45;&gt;1</title>
<path fill="none" stroke="#000000" stroke-width="1.5" d="M137.71,-51.2447C132.7461,-60.6649 126.8215,-71.4629 121,-81 116.7168,-88.017 111.7813,-95.4397 107.1258,-102.1894"/>
<polygon fill="#000000" stroke="#000000" stroke-width="1.5" points="106.5113,-101.8473 105.9488,-103.8903 107.6626,-102.644 106.5113,-101.8473"/>
<text text-anchor="middle" x="131" y="-74.6" font-family="Times,serif" font-size="8.00" fill="#000000">0.1</text>
</g>
</g>
</svg>
